<svg xmlns="http://www.w3.org/2000/svg" width="64" height="64" viewBox="0 0 64 64" role="img" aria-label="Kesra favicon">
  <defs>
    <radialGradient id="g0" cx="22%" cy="20%" r="70%">
      <stop offset="0%" stop-color="#00D2FF" stop-opacity="0.55"/>
      <stop offset="60%" stop-color="#00D2FF" stop-opacity="0"/>
    </radialGradient>
    <radialGradient id="g1" cx="80%" cy="82%" r="78%">
      <stop offset="0%" stop-color="#7C5CFF" stop-opacity="0.65"/>
      <stop offset="62%" stop-color="#7C5CFF" stop-opacity="0"/>
    </radialGradient>
    <linearGradient id="edge" x1="0" y1="0" x2="1" y2="1">
      <stop offset="0%" stop-color="#FFFFFF" stop-opacity="0.18"/>
      <stop offset="45%" stop-color="#FFFFFF" stop-opacity="0.06"/>
      <stop offset="100%" stop-color="#FFFFFF" stop-opacity="0.12"/>
    </linearGradient>
    <filter id="s" x="-20%" y="-20%" width="140%" height="140%">
      <feDropShadow dx="0" dy="6" stdDeviation="6" flood-color="#000000" flood-opacity="0.35"/>
    </filter>
  </defs>

  <rect x="6" y="6" width="52" height="52" rx="16" fill="#0B0B10" filter="url(#s)"/>
  <rect x="6" y="6" width="52" height="52" rx="16" fill="url(#g0)"/>
  <rect x="6" y="6" width="52" height="52" rx="16" fill="url(#g1)"/>
  <rect x="6.5" y="6.5" width="51" height="51" rx="15.5" fill="none" stroke="url(#edge)"/>

  <g fill="#FFFFFF" fill-opacity="0.94">
    <path d="M22 46V18h8.9c3.1 0 5.5.7 7.2 2.1 1.7 1.4 2.6 3.4 2.6 6 0 1.7-.4 3.2-1.2 4.4-.8 1.2-2 2.1-3.5 2.7l6 12.8h-6.6l-5.1-11.5H28v11.5h-6Zm6-16.6h2.9c1.3 0 2.3-.3 3-.9.7-.6 1-1.5 1-2.7 0-1.2-.3-2.1-1-2.7-.7-.6-1.7-.9-3-.9H28v7.2Z"/>
  </g>
</svg>
